<svg width="20" height="20" viewBox="0 0 20 20" fill="none" xmlns="http://www.w3.org/2000/svg">
<path d="M19.9885 10.273C19.9885 10.2287 19.9885 10.1841 19.9885 10.1396C19.9885 10.0608 19.9885 9.98204 19.9885 9.90328C19.9885 9.8592 19.9885 9.81511 19.9885 9.77102C19.9873 9.4158 19.9848 9.05989 19.9398 8.70765C19.8139 7.72648 19.5457 6.78504 19.1366 5.88286C18.6479 4.80594 17.9912 3.84451 17.1683 2.99767C16.7115 2.52787 16.2112 2.10743 15.6691 1.73774C14.9995 1.28103 14.2888 0.903533 13.5283 0.62087C13.4851 0.604797 13.4422 0.588035 13.3947 0.597449C13.3568 0.60916 13.3288 0.635566 13.2996 0.660365C12.8925 1.00847 12.4911 1.363 12.0861 1.71318C11.5217 2.20089 10.9602 2.69205 10.3965 3.18068C9.98595 3.53659 9.57815 3.89526 9.16598 4.24911C9.12419 4.28493 9.07069 4.31937 9.0886 4.39009C9.12166 4.44359 9.17975 4.45645 9.23257 4.47712C10.6025 5.01604 11.9742 5.55105 13.3462 6.08469C13.4401 6.1212 13.4815 6.17264 13.4805 6.27941C13.476 6.91431 13.4785 7.54944 13.478 8.18434C13.478 8.26081 13.4826 8.33727 13.4723 8.41374C13.4592 8.46241 13.4163 8.48538 13.382 8.51408C12.275 9.43761 11.1641 10.3568 10.0576 11.2808C9.74944 11.5382 9.43693 11.7905 9.13131 12.0509C9.08263 12.0925 9.00731 12.1283 9.05346 12.2169C9.19812 12.3143 9.36736 12.3552 9.52648 12.4176C10.7928 12.9145 12.0622 13.4036 13.3258 13.9076C13.4785 13.9685 13.4785 13.9699 13.4785 14.1327C13.4787 14.7825 13.4787 15.4323 13.4783 16.0821C13.4783 16.1315 13.4849 16.182 13.4578 16.228C13.4293 16.2851 13.3745 16.3166 13.3281 16.3549C12.1747 17.3044 11.0248 18.2583 9.87252 19.2091C9.622 19.4158 9.3685 19.619 9.12304 19.8316C9.08446 19.8649 9.0181 19.8916 9.05323 19.9662C9.11661 19.9986 9.18917 19.9738 9.25369 19.999C9.28423 19.999 9.315 19.999 9.34554 19.999C9.36093 19.9848 9.37608 19.9848 9.39147 19.999C9.422 19.999 9.45277 19.999 9.48331 19.999C9.52924 19.9809 9.57516 19.9809 9.62109 19.999C9.86609 19.999 10.1109 19.999 10.3559 19.999C10.3942 19.9806 10.4323 19.9806 10.4707 19.999C10.509 19.999 10.5471 19.999 10.5855 19.999C10.6009 19.9848 10.616 19.9848 10.6314 19.999C10.6468 19.999 10.662 19.999 10.6773 19.999C10.7047 19.9779 10.7364 19.9901 10.766 19.9878C10.9903 19.9705 11.2165 19.9758 11.4397 19.9432C12.3653 19.8077 13.2548 19.5501 14.1076 19.1632C15.4998 18.5317 16.6895 17.6323 17.6748 16.4647C18.2805 15.7469 18.7733 14.9563 19.1549 14.0975C19.6959 12.8803 20.0054 11.6121 19.9885 10.273Z" fill="#FE0000"/>
<path d="M10.9111 15.4204C10.9554 15.3826 11.0112 15.3415 10.974 15.2666C10.9348 15.2207 10.879 15.2041 10.8257 15.1835C10.6222 15.1054 10.419 15.0264 10.2156 14.9479C9.04177 14.4944 7.86978 14.0363 6.6955 13.5844C6.52168 13.5176 6.52191 13.5162 6.52168 13.327C6.52168 12.6804 6.52145 12.0338 6.52191 11.3872C6.52191 11.3339 6.51732 11.2799 6.53362 11.2273C6.54326 11.1904 6.57541 11.1738 6.60159 11.1525C7.79355 10.1761 8.97931 9.19245 10.1699 8.21426C10.4239 8.00554 10.6787 7.79773 10.9304 7.58625C10.9747 7.54905 11.0367 7.513 10.9924 7.43677C10.9529 7.39796 10.9008 7.38212 10.8512 7.36329C10.5079 7.23332 10.1669 7.09785 9.82454 6.96581C8.77586 6.56145 7.72902 6.15273 6.68035 5.74859C6.52214 5.68751 6.52214 5.68614 6.52214 5.51507C6.52191 4.85744 6.52191 4.19957 6.52214 3.54194C6.52214 3.49234 6.51892 3.44251 6.53041 3.39314C6.56783 3.32839 6.63167 3.2905 6.68747 3.24573C7.94073 2.24366 9.18803 1.23425 10.4413 0.231955C10.4831 0.19866 10.529 0.169269 10.5623 0.127248C10.5871 0.09602 10.6241 0.0597399 10.5651 0.0241487C10.4576 -0.0024873 10.3481 0.0172601 10.2397 0.0110603C10.1933 0.0110603 10.1467 0.0110603 10.1001 0.0110603C10.0271 0.0110603 9.95382 0.0110603 9.8808 0.0110603C9.83625 0.0110603 9.7917 0.0110603 9.74716 0.0110603C9.46427 0.00761601 9.18091 0.0149639 8.90009 0.0386148C8.38115 0.0822427 7.87139 0.184194 7.36806 0.321278C5.70905 0.772712 4.26359 1.60187 3.02158 2.7858C2.50791 3.27535 2.05602 3.81978 1.66084 4.41013C1.20114 5.09693 0.826863 5.82712 0.545349 6.60416C0.304477 7.26822 0.135476 7.9502 0.0461537 8.65123C0.0185993 8.86638 0.0335246 9.08452 0 9.29922C0 9.32976 0 9.36053 0 9.39107C0.0140068 9.40393 0.0107922 9.42092 0.011481 9.43699C0.0107922 9.45306 0.0140068 9.47006 0 9.48292C0 9.78142 0 10.0799 0 10.3784C0.01814 10.4244 0.01814 10.4703 0 10.5162C0 10.5851 0 10.654 0 10.7229C0.0326061 10.9298 0.0179104 11.1403 0.0440871 11.3474C0.171986 12.3653 0.461537 13.3364 0.897586 14.2634C1.48289 15.5077 2.2884 16.5892 3.31457 17.5054C4.13478 18.2377 5.05578 18.8122 6.06267 19.2501C6.15612 19.2907 6.24774 19.3442 6.35566 19.3408C6.4234 19.3206 6.4769 19.2788 6.52926 19.2333C6.68241 19.101 6.83373 18.9665 6.98666 18.834C7.47713 18.4087 7.96737 17.983 8.45646 17.5564C8.9715 17.107 9.48723 16.6583 10.0032 16.2101C10.3063 15.9472 10.6057 15.6804 10.9111 15.4204Z" fill="#FE0000"/>
<path d="M19.9805 10.1502C19.9805 10.0657 19.9805 9.98147 19.9805 9.89697C19.9871 9.8848 19.9933 9.88434 19.9995 9.8972C19.9995 9.98147 19.9995 10.0655 19.9995 10.1498C19.9936 10.1626 19.9871 10.1622 19.9805 10.1502Z" fill="#FDD4D4"/>
<path d="M10.1036 0.0190585C10.0269 0.0190585 9.94995 0.0190585 9.87326 0.0190585C9.86431 0.0146957 9.86132 0.0103329 9.86454 0.00619976C9.86729 0.00206659 9.87028 0 9.87349 0C9.94995 0 10.0266 0 10.1031 0C10.1123 0.00413317 10.1153 0.00826634 10.1123 0.0126291C10.1095 0.0169919 10.1065 0.0190585 10.1036 0.0190585Z" fill="#FDD2D2"/>
<path d="M9.87261 0C9.87261 0.00642938 9.87238 0.0126291 9.87215 0.0190585C9.82622 0.0190585 9.7803 0.0190585 9.73438 0.0190585C9.7346 0.0126291 9.7346 0.00642938 9.73483 0C9.78076 0 9.82668 0 9.87261 0Z" fill="#FDE6E6"/>
<path d="M10.102 0.0190585C10.1018 0.0126291 10.1016 0.00642938 10.1016 0C10.1475 0 10.1934 0 10.2393 0C10.2396 0.00642938 10.2396 0.0126291 10.2398 0.0190585C10.1939 0.0190585 10.1479 0.0190585 10.102 0.0190585Z" fill="#FDE6E6"/>
<path d="M19.9998 9.89749L19.9901 9.89703L19.9805 9.89726C19.9805 9.85134 19.9805 9.80541 19.9805 9.75926C19.9869 9.75857 19.9931 9.75857 19.9995 9.75972C19.9998 9.80564 19.9998 9.85157 19.9998 9.89749Z" fill="#FDE5E5"/>
<path d="M19.9805 10.1499C19.9869 10.1503 19.9933 10.1501 19.9998 10.1494C19.9998 10.1953 19.9998 10.2413 19.9998 10.2872L19.9901 10.2876L19.9805 10.2874C19.9805 10.2417 19.9805 10.1958 19.9805 10.1499Z" fill="#FDE9E9"/>
<path d="M0 10.3789C0.028473 10.4248 0.0392651 10.4708 0 10.5167C0 10.4708 0 10.4248 0 10.3789Z" fill="#FD3C3C"/>
<path d="M9.48438 20.0005C9.5303 19.9612 9.57622 19.9711 9.62215 20.0005C9.57622 20.0005 9.5303 20.0005 9.48438 20.0005Z" fill="#FD3737"/>
<path d="M10.3555 20.0004C10.3938 19.9719 10.4319 19.963 10.4703 20.0004C10.4319 20.0004 10.3938 20.0004 10.3555 20.0004Z" fill="#FD3737"/>
<path d="M0 9.3916C0.0264064 9.39803 0.0215843 9.41778 0.0192881 9.43638C0.0137772 9.45222 0.00734786 9.45245 0 9.43753C0 9.42214 0 9.40699 0 9.3916Z" fill="#FD9797"/>
<path d="M0 9.4375C0.00642938 9.43681 0.0128588 9.43635 0.0192881 9.43658C0.0229621 9.45633 0.0225028 9.47424 0 9.48342C0 9.46804 0 9.45288 0 9.4375Z" fill="#FD7777"/>
<path d="M9.34375 20.0006C9.35913 19.9668 9.37429 19.9703 9.38967 20.0006C9.37429 20.0006 9.35913 20.0006 9.34375 20.0006Z" fill="#FDA7A7"/>
<path d="M10.5859 20.0006C10.6013 19.9703 10.6165 19.9668 10.6319 20.0006C10.6165 20.0006 10.6013 20.0006 10.5859 20.0006Z" fill="#FDA7A7"/>
<path d="M10.9749 15.298C10.2863 15.0293 9.59814 14.76 8.90905 14.4925C8.13132 14.1905 7.35314 13.8895 6.5738 13.5912C6.49895 13.5625 6.47047 13.5285 6.47093 13.4447C6.47484 12.7262 6.47277 12.0077 6.47438 11.2893C6.47438 11.2553 6.45233 11.2128 6.4955 11.1864C6.59171 11.1694 6.67484 11.2135 6.75911 11.2465C7.41399 11.504 8.07116 11.7556 8.72558 12.0142C8.79309 12.0408 8.86152 12.0656 8.92926 12.092C8.97977 12.1118 9.02753 12.1356 9.05118 12.1894C10.1242 12.6068 11.1972 13.024 12.27 13.4422C12.6572 13.593 13.0427 13.7483 13.4307 13.8973C13.5024 13.9248 13.5253 13.9609 13.5249 14.039C13.5212 14.7501 13.5235 15.4615 13.5196 16.1726C13.5194 16.1997 13.5699 16.2711 13.479 16.267C13.3931 16.2996 13.3219 16.2486 13.2496 16.2206C12.5901 15.9657 11.9304 15.7111 11.2712 15.4548C11.2071 15.4298 11.1417 15.4084 11.0783 15.3816C11.036 15.3636 10.9926 15.3464 10.9749 15.298Z" fill="#FEFEFE"/>
<path d="M10.9918 7.46752C9.67287 6.95707 8.35371 6.44686 7.03477 5.93641C6.87128 5.87304 6.70894 5.8069 6.54407 5.74697C6.49332 5.7286 6.47266 5.70633 6.47266 5.64984C6.47449 4.90404 6.4738 4.15846 6.47426 3.41265C6.47426 3.39107 6.46806 3.36558 6.49654 3.3541C6.55945 3.34239 6.61709 3.3619 6.67449 3.38418C7.31904 3.63538 7.96289 3.88888 8.60721 4.14147C8.72822 4.189 8.85129 4.23125 8.9707 4.28222C9.01547 4.30128 9.06668 4.31368 9.08711 4.36695C9.56105 4.55524 10.0343 4.74514 10.5092 4.93113C11.4777 5.31046 12.4469 5.68842 13.4168 6.06431C13.4938 6.09416 13.5264 6.1286 13.5259 6.21793C13.5213 6.92493 13.5236 7.63193 13.5225 8.33893C13.5225 8.3782 13.5417 8.42343 13.5016 8.45673C13.4467 8.46385 13.3966 8.44731 13.3461 8.42779C12.6051 8.14192 11.8651 7.85397 11.1238 7.56901C11.0699 7.54835 11.0171 7.52561 10.9918 7.46752Z" fill="#FEFEFE"/>
<path d="M10.9918 7.46777C11.7741 7.77156 12.5565 8.07512 13.3386 8.3796C13.3946 8.40141 13.4566 8.41174 13.5016 8.45698C13.2518 8.69326 12.9792 8.90267 12.7156 9.12242C11.5206 10.1185 10.3236 11.1121 9.12777 12.1068C9.09884 12.1307 9.06348 12.1497 9.05177 12.1897C8.2132 11.8623 7.37485 11.535 6.53628 11.2074C6.52227 11.2019 6.50941 11.1936 6.49609 11.1865C7.97416 9.96903 9.45223 8.75158 10.9301 7.53367C10.9533 7.51485 10.9714 7.48982 10.9918 7.46777Z" fill="#FEB1B1"/>
<path d="M10.9777 15.2979C11.8124 15.6209 12.6471 15.944 13.4818 16.2668C13.3164 16.4418 13.1183 16.5784 12.9357 16.733C12.558 17.0528 12.1738 17.3654 11.792 17.6802C11.3837 18.017 10.9745 18.353 10.5663 18.6898C10.1874 19.0023 9.80874 19.3153 9.43079 19.629C9.30197 19.7357 9.17545 19.845 9.04778 19.9532C8.63928 19.9311 8.23836 19.8572 7.83951 19.7713C7.36603 19.6694 6.90266 19.5327 6.45076 19.3575C6.41931 19.3454 6.38991 19.3288 6.35938 19.3141C6.60025 19.1385 6.81219 18.9286 7.03859 18.736C7.37246 18.4517 7.70243 18.1628 8.03354 17.8751C8.2898 17.6524 8.54445 17.4278 8.80048 17.2051C9.13434 16.9148 9.46936 16.626 9.803 16.3355C10.0675 16.105 10.332 15.8742 10.5938 15.6404C10.7219 15.5261 10.8648 15.4285 10.9777 15.2979Z" fill="#CF0000"/>
<path d="M9.08691 4.36638C8.66831 4.20519 8.24925 4.0456 7.83134 3.88211C7.38542 3.70783 6.9411 3.52987 6.49609 3.35353C6.97738 2.96616 7.45866 2.57925 7.93949 2.19165C8.58656 1.66972 9.23272 1.14687 9.88025 0.625403C10.0881 0.458009 10.2988 0.29429 10.5073 0.127356C10.5367 0.103934 10.5597 0.072706 10.5859 0.0449219C11.092 0.055714 11.5895 0.135392 12.0828 0.240099C12.5264 0.334244 12.965 0.449513 13.387 0.620122C13.252 0.782463 13.0761 0.900488 12.9216 1.04171C12.6571 1.28281 12.3815 1.51197 12.1103 1.74618C11.7875 2.02517 11.4639 2.30347 11.1418 2.58338C10.88 2.8107 10.6203 3.04055 10.3585 3.26834C10.0309 3.5533 9.70206 3.83734 9.37347 4.12138C9.27818 4.20312 9.1822 4.28464 9.08691 4.36638Z" fill="#CF0000"/>
</svg>
