<svg xmlns="http://www.w3.org/2000/svg" width="19" height="17" fill="currentColor" viewBox="0 0 19 17">
  <path d="M6.717 0C5.142-.008 3.608 1.508 4.308 3.392H1.667A1.667 1.667 0 0 0 0 5.058v1.667a.833.833 0 0 0 .833.833h7.5v-2.5H10v2.5h7.5a.833.833 0 0 0 .833-.833V5.058a1.667 1.667 0 0 0-1.666-1.666h-2.642c.975-2.725-2.692-4.65-4.383-2.3l-.475.633-.475-.65C8.167.333 7.442.008 6.717 0Zm-.05 1.725c.741 0 1.116.9.591 1.425-.525.525-1.425.15-1.425-.592a.833.833 0 0 1 .834-.833Zm5 0c.741 0 1.116.9.591 1.425-.525.525-1.425.15-1.425-.592a.833.833 0 0 1 .834-.833ZM.833 8.392v6.666A1.667 1.667 0 0 0 2.5 16.725h13.333a1.667 1.667 0 0 0 1.667-1.667V8.392H10v6.666H8.333V8.392h-7.5Z"/>
</svg>
