<svg xmlns="http://www.w3.org/2000/svg" width="26" height="26" fill="currentColor" viewBox="0 0 26 26">
  <g clip-path="url(#a)">
    <path d="M25.238 10.207h-1.681a10.793 10.793 0 0 0-1.12-2.694l1.192-1.192a.762.762 0 0 0 0-1.077L20.756 2.37a.762.762 0 0 0-1.077 0l-1.192 1.192a10.795 10.795 0 0 0-2.694-1.12V.763A.762.762 0 0 0 15.031 0H10.97a.762.762 0 0 0-.762.762v1.682a10.79 10.79 0 0 0-2.694 1.12L6.321 2.37a.762.762 0 0 0-1.077 0L2.37 5.244a.762.762 0 0 0 0 1.077l1.192 1.192c-.496.849-.87 1.751-1.12 2.694H.762a.762.762 0 0 0-.762.762v4.062c0 .42.341.762.762.762h1.681c.25.943.624 1.845 1.12 2.694l-1.192 1.192a.762.762 0 0 0 0 1.077l2.873 2.873a.762.762 0 0 0 1.077 0l1.192-1.192c.849.495 1.75.87 2.694 1.12v1.681c0 .421.341.762.762.762h4.062c.42 0 .762-.341.762-.762v-1.681a10.794 10.794 0 0 0 2.694-1.12l1.192 1.192a.762.762 0 0 0 1.077 0l2.872-2.873a.762.762 0 0 0 0-1.077l-1.192-1.192a10.79 10.79 0 0 0 1.12-2.694h1.682a.762.762 0 0 0 .762-.762V10.97a.762.762 0 0 0-.762-.762ZM13 20.109c-3.92 0-7.11-3.189-7.11-7.109S9.08 5.89 13 5.89c3.92 0 7.11 3.19 7.11 7.11 0 3.92-3.19 7.11-7.11 7.11Z"/>
    <path d="M16.047 9.191h-2.285v1.524a.762.762 0 1 1-1.524 0V9.19H9.953a.762.762 0 0 0-.762.762v6.094c0 .42.341.762.762.762h6.094c.42 0 .762-.341.762-.762V9.953a.762.762 0 0 0-.762-.762Z"/>
  </g>
  <defs>
    <clipPath id="a">
      <path d="M0 0h26v26H0z"/>
    </clipPath>
  </defs>
</svg>
