<svg width="75" height="32" viewBox="0 0 75 32" fill="none" xmlns="http://www.w3.org/2000/svg">
<g opacity="0.8">
<path d="M34.903 12.8877H33.4227C32.9752 12.8877 32.6309 13.0271 32.4244 13.4802L29.6016 19.9974H31.5982C31.5982 19.9974 31.9424 19.1261 32.0113 18.917C32.2178 18.917 34.18 18.917 34.4554 18.917C34.5243 19.161 34.6964 19.9625 34.6964 19.9625H36.4865L34.903 12.8877ZM32.5621 17.4532C32.7342 17.035 33.3194 15.4667 33.3194 15.4667C33.3194 15.5016 33.4915 15.0485 33.5604 14.8045L33.6981 15.4319C33.6981 15.4319 34.0768 17.1396 34.1456 17.4881H32.5621V17.4532Z" fill="#9D9D9D"/>
<path d="M29.7391 17.6605C29.7391 19.1242 28.431 20.1001 26.4 20.1001C25.5393 20.1001 24.7131 19.9258 24.2656 19.7167L24.541 18.1135L24.782 18.2181C25.4016 18.4969 25.8147 18.6014 26.5721 18.6014C27.1229 18.6014 27.7081 18.3923 27.7081 17.9044C27.7081 17.5908 27.4671 17.3816 26.7098 17.0331C25.9869 16.6846 25.023 16.127 25.023 15.1163C25.023 13.7222 26.3655 12.7812 28.2589 12.7812C28.9818 12.7812 29.6014 12.9207 29.9801 13.0949L29.7047 14.6284L29.567 14.489C29.2228 14.3496 28.7753 14.2102 28.1212 14.2102C27.3983 14.245 27.054 14.5587 27.054 14.8375C27.054 15.1511 27.4671 15.3951 28.1212 15.7088C29.2228 16.2315 29.7391 16.824 29.7391 17.6605Z" fill="#9D9D9D"/>
<path d="M12.9414 12.9558L12.9758 12.8164H15.9363C16.3494 12.8164 16.6593 12.9558 16.7625 13.4089L17.4166 16.5455C16.7625 14.8726 15.2479 13.5134 12.9414 12.9558Z" fill="#9D9D9D"/>
<path d="M21.5832 12.8874L18.5882 19.9622H16.5572L14.8359 14.0375C16.0752 14.8391 17.108 16.0937 17.4866 16.965L17.6932 17.6969L19.5521 12.8525H21.5832V12.8874Z" fill="#9D9D9D"/>
<path d="M22.3728 12.8525H24.2662L23.0613 19.9622H21.168L22.3728 12.8525Z" fill="#9D9D9D"/>
</g>
<g opacity="0.8">
<path d="M62.3947 15.8268C62.3947 19.2641 59.6341 22.0911 56.2071 22.0911C52.8119 22.0911 50.0195 19.2641 50.0195 15.8268C50.0195 12.3895 52.7801 9.5625 56.1754 9.5625C59.6341 9.5625 62.3947 12.3895 62.3947 15.8268Z" fill="#C7C7C7"/>
<path d="M54.1129 15.8589C54.1129 15.4092 54.0495 14.9594 53.986 14.5418H50.1783C50.21 14.3169 50.2735 14.1242 50.3369 13.8672H53.7322C53.6687 13.6423 53.5735 13.4174 53.4783 13.1926H50.5908C50.686 12.9677 50.8129 12.775 50.9398 12.518H53.1293C53.0024 12.2931 52.8437 12.0682 52.6533 11.8433H51.4475C51.6379 11.6185 51.8283 11.4257 52.0822 11.2009C51.0033 10.1729 49.5437 9.5625 47.9254 9.5625C44.5619 9.65887 41.7695 12.3895 41.7695 15.8268C41.7695 19.2641 44.5301 22.0911 47.9571 22.0911C49.5754 22.0911 51.0033 21.4486 52.1139 20.4527C52.336 20.26 52.5264 20.0351 52.7485 19.7781H51.4793C51.3206 19.5854 51.162 19.3605 51.035 19.1356H53.1927C53.3197 18.9429 53.4466 18.718 53.5418 18.461H50.6543C50.5591 18.2683 50.4639 18.0434 50.4004 17.7864H53.7956C53.986 17.2082 54.1129 16.5657 54.1129 15.8589Z" fill="#9D9D9D"/>
<path d="M50.1472 17.4331L50.2424 16.8549C50.2107 16.8549 50.1472 16.887 50.0838 16.887C49.8617 16.887 49.8299 16.7585 49.8617 16.6942L50.0521 15.5378H50.4011L50.4963 14.8953H50.179L50.2424 14.5098H49.5761C49.5761 14.5098 49.1953 16.6942 49.1953 16.9512C49.1953 17.3367 49.4174 17.5295 49.7347 17.5295C49.9251 17.5295 50.0838 17.4652 50.1472 17.4331Z" fill="white"/>
<path d="M50.3672 16.3731C50.3672 17.3047 51.0018 17.5296 51.5095 17.5296C51.9855 17.5296 52.2076 17.4332 52.2076 17.4332L52.3345 16.7907C52.3345 16.7907 51.9855 16.9513 51.6364 16.9513C50.9066 16.9513 51.0335 16.4052 51.0335 16.4052H52.3662C52.3662 16.4052 52.4614 15.9876 52.4614 15.7948C52.4614 15.3772 52.2393 14.8311 51.5095 14.8311C50.8749 14.799 50.3672 15.5378 50.3672 16.3731ZM51.5095 15.4093C51.8585 15.4093 51.7951 15.827 51.7951 15.8591H51.0653C51.097 15.827 51.1605 15.4093 51.5095 15.4093Z" fill="white"/>
<path d="M55.668 17.434L55.795 16.6952C55.795 16.6952 55.4777 16.8558 55.2238 16.8558C54.7796 16.8558 54.5575 16.5024 54.5575 16.0848C54.5575 15.2817 54.9382 14.8641 55.4142 14.8641C55.7315 14.8641 56.0171 15.0568 56.0171 15.0568L56.1123 14.3501C56.1123 14.3501 55.7315 14.1895 55.3507 14.1895C54.5892 14.1895 53.8594 14.8641 53.8594 16.1169C53.8594 16.9522 54.2401 17.4983 55.0334 17.4983C55.319 17.5304 55.668 17.434 55.668 17.434Z" fill="white"/>
<path d="M46.5617 14.7988C46.1175 14.7988 45.7685 14.9273 45.7685 14.9273L45.6733 15.5056C45.6733 15.5056 45.9588 15.3771 46.4031 15.3771C46.6252 15.3771 46.8156 15.4092 46.8156 15.6019C46.8156 15.7304 46.7839 15.7626 46.7839 15.7626H46.4983C45.9271 15.7626 45.3242 15.9874 45.3242 16.7584C45.3242 17.3688 45.705 17.4973 45.9588 17.4973C46.4031 17.4973 46.6252 17.2082 46.6569 17.2082L46.6252 17.4652H47.1646L47.4185 15.6341C47.4185 14.831 46.7839 14.7988 46.5617 14.7988ZM46.6887 16.2766C46.6887 16.3729 46.6252 16.919 46.2444 16.919C46.054 16.919 45.9906 16.7584 45.9906 16.6621C45.9906 16.5014 46.0858 16.2766 46.5935 16.2766C46.6569 16.2766 46.6887 16.2766 46.6887 16.2766Z" fill="white"/>
<path d="M48.0511 17.4982C48.2097 17.4982 49.0348 17.5303 49.0348 16.6308C49.0348 15.7956 48.2415 15.9562 48.2415 15.6349C48.2415 15.4743 48.3684 15.4101 48.5905 15.4101C48.6857 15.4101 49.0348 15.4422 49.0348 15.4422L49.1299 14.8318C49.1299 14.8318 48.9078 14.7676 48.4953 14.7676C48.0194 14.7676 47.5117 14.9603 47.5117 15.6349C47.5117 16.4059 48.3367 16.3417 48.3367 16.6308C48.3367 16.8236 48.1146 16.8557 47.9559 16.8557C47.6703 16.8557 47.353 16.7593 47.353 16.7593L47.2578 17.3697C47.3213 17.4339 47.5117 17.4982 48.0511 17.4982Z" fill="white"/>
<path d="M61.126 14.2871L60.9991 15.1866C60.9991 15.1866 60.7453 14.8654 60.3645 14.8654C59.7616 14.8654 59.2539 15.6042 59.2539 16.4716C59.2539 17.0177 59.5078 17.5638 60.0789 17.5638C60.4597 17.5638 60.7135 17.3068 60.7135 17.3068L60.6818 17.5317H61.3482L61.8241 14.3514L61.126 14.2871ZM60.8087 16.0218C60.8087 16.3752 60.6501 16.8571 60.2693 16.8571C60.0472 16.8571 59.9203 16.6643 59.9203 16.311C59.9203 15.7648 60.1424 15.4436 60.4597 15.4436C60.6818 15.4757 60.8087 15.6363 60.8087 16.0218Z" fill="white"/>
<path d="M42.9745 17.4674L43.3552 15.0902L43.4187 17.4674H43.8629L44.7197 15.0902L44.3706 17.4674H45.0687L45.6082 14.2871H44.5293L43.8629 16.2467L43.8312 14.2871H42.8793L42.3398 17.4674H42.9745Z" fill="white"/>
<path d="M53.1283 17.4654C53.3186 16.3731 53.3504 15.4736 53.8263 15.6343C53.8898 15.2167 53.985 15.0239 54.0485 14.8633H53.9215C53.636 14.8633 53.3821 15.2488 53.3821 15.2488L53.4456 14.8954H52.8109L52.3984 17.4654H53.1283Z" fill="white"/>
<path d="M57.1906 14.7988C56.7464 14.7988 56.3974 14.9273 56.3974 14.9273L56.3022 15.5056C56.3022 15.5056 56.5877 15.3771 57.032 15.3771C57.2541 15.3771 57.4445 15.4092 57.4445 15.6019C57.4445 15.7304 57.4128 15.7626 57.4128 15.7626H57.1272C56.556 15.7626 55.9531 15.9874 55.9531 16.7584C55.9531 17.3688 56.3339 17.4973 56.5877 17.4973C57.032 17.4973 57.2541 17.2082 57.2858 17.2082L57.2541 17.4652H57.857L58.1108 15.6341C58.1108 14.831 57.4128 14.7988 57.1906 14.7988ZM57.3493 16.2766C57.3493 16.3729 57.2858 16.919 56.9051 16.919C56.7147 16.919 56.6512 16.7584 56.6512 16.6621C56.6512 16.5014 56.7464 16.2766 57.2541 16.2766C57.3176 16.2766 57.3176 16.2766 57.3493 16.2766Z" fill="white"/>
<path d="M58.6204 17.4654C58.8108 16.3731 58.8426 15.4736 59.3185 15.6343C59.382 15.2167 59.4772 15.0239 59.5406 14.8633H59.4137C59.1281 14.8633 58.8743 15.2488 58.8743 15.2488L58.9378 14.8954H58.3031L57.8906 17.4654H58.6204Z" fill="white"/>
</g>
</svg>
