<svg width="24" height="24" viewBox="0 0 24 24" fill="none" xmlns="http://www.w3.org/2000/svg">
<circle cx="12" cy="12" r="12" fill="#2F89CE"/>
<path d="M5.02172 12.3839L7.91853 13.4452L9.04778 17.0153C9.09687 17.2565 9.39147 17.3048 9.58786 17.16L11.2081 15.8575C11.3554 15.7127 11.6009 15.7127 11.7973 15.8575L14.6941 17.9319C14.8905 18.0767 15.185 17.9802 15.2341 17.739L17.3945 7.60769C17.4436 7.36647 17.1981 7.12525 16.9526 7.22174L5.02172 11.7567C4.72713 11.8532 4.72713 12.2874 5.02172 12.3839ZM8.90049 12.9146L14.5959 9.48921C14.6941 9.44097 14.7923 9.5857 14.6941 9.63395L10.0297 13.9277C9.88245 14.0724 9.73515 14.2654 9.73515 14.5066L9.58786 15.6645C9.58786 15.8092 9.34237 15.8574 9.29327 15.6645L8.70408 13.5417C8.55679 13.3005 8.655 13.011 8.90049 12.9146Z" fill="white"/>
</svg>
