<svg xmlns="http://www.w3.org/2000/svg" width="20" height="20" fill="currentColor" viewBox="0 0 20 20">
  <g clip-path="url(#a)">
    <path d="M14.944 9.116a.623.623 0 0 0-.569-.366h-2.5V.625A.625.625 0 0 0 11.25 0h-2.5a.625.625 0 0 0-.625.625V8.75h-2.5a.625.625 0 0 0-.47 1.036l4.375 5a.624.624 0 0 0 .94 0l4.375-5a.623.623 0 0 0 .099-.67Z"/>
    <path d="M16.875 13.75v3.75H3.125v-3.75h-2.5v5c0 .691.56 1.25 1.25 1.25h16.25a1.25 1.25 0 0 0 1.25-1.25v-5h-2.5Z"/>
  </g>
  <defs>
    <clipPath id="a">
      <path d="M0 0h20v20H0z"/>
    </clipPath>
  </defs>
</svg>
