<svg width="20" height="20" viewBox="0 0 20 20" fill="none" xmlns="http://www.w3.org/2000/svg">
<circle cx="10" cy="10" r="10" fill="#4A76A8"/>
<path d="M14.8978 13.3332C14.8978 13.2886 14.8541 13.2886 14.8541 13.2441C14.679 12.888 14.2851 12.4428 13.7599 11.953C13.4973 11.7304 13.366 11.5523 13.2785 11.4633C13.1472 11.2852 13.1472 11.1517 13.1909 10.9736C13.2347 10.84 13.4098 10.6174 13.7161 10.2167C13.8912 9.99412 13.9787 9.86057 14.11 9.72701C14.7665 8.83659 15.0729 8.25782 14.9854 7.9907L14.9416 7.94618C14.8978 7.90166 14.8541 7.85714 14.7665 7.85714C14.679 7.81262 14.5477 7.81262 14.4164 7.85714H12.7533C12.7095 7.85714 12.7095 7.85714 12.622 7.85714C12.5782 7.85714 12.5344 7.85714 12.5344 7.85714H12.4907H12.4469L12.4031 7.90166C12.3594 7.94618 12.3594 7.94618 12.3594 7.9907C12.1843 8.48043 11.9655 8.88111 11.7466 9.32632C11.6153 9.54892 11.484 9.77153 11.3527 9.94961C11.2214 10.1277 11.1339 10.2612 11.0464 10.3503C10.9588 10.4393 10.8713 10.4839 10.8275 10.5729C10.7838 10.6174 10.6963 10.6619 10.6963 10.6174C10.6525 10.6174 10.6087 10.6174 10.6087 10.5729C10.5649 10.5284 10.5212 10.4839 10.4774 10.4393C10.4337 10.3948 10.4337 10.3058 10.3899 10.2167C10.3899 10.1277 10.3899 10.0386 10.3899 9.99412C10.3899 9.9496 10.3899 9.81605 10.3899 9.72701C10.3899 9.59344 10.3899 9.5044 10.3899 9.45988C10.3899 9.32632 10.3899 9.14824 10.3899 8.97016C10.3899 8.79207 10.3899 8.65851 10.3899 8.56947C10.3899 8.48043 10.3899 8.34687 10.3899 8.25782C10.3899 8.12426 10.3899 8.03522 10.3899 7.9907C10.3899 7.94618 10.3461 7.85714 10.3461 7.81262C10.3024 7.7681 10.2586 7.72358 10.2148 7.67906C10.1711 7.63454 10.0835 7.63454 10.0398 7.59002C9.82093 7.5455 9.55833 7.50098 9.25197 7.50098C8.55171 7.50098 8.07027 7.5455 7.89521 7.63454C7.80768 7.67906 7.72014 7.72358 7.67638 7.81262C7.58885 7.90166 7.58884 7.94618 7.63261 7.94618C7.85144 7.9907 8.02651 8.07974 8.11404 8.2133L8.15781 8.30235C8.20158 8.34687 8.20157 8.43591 8.24533 8.56947C8.2891 8.70303 8.2891 8.83659 8.2891 9.01467C8.2891 9.2818 8.2891 9.54892 8.2891 9.72701C8.2891 9.94961 8.24533 10.0832 8.24533 10.2167C8.24533 10.3503 8.20158 10.4393 8.15781 10.4839C8.11404 10.5729 8.11404 10.6174 8.07027 10.6174C8.07027 10.6174 8.07027 10.6619 8.0265 10.6619C7.98274 10.6619 7.93897 10.7065 7.85144 10.7065C7.80767 10.7065 7.72014 10.6619 7.67638 10.6174C7.58885 10.5729 7.50131 10.4839 7.45755 10.3948C7.37001 10.3058 7.28248 10.1722 7.19495 9.99412C7.10741 9.81604 6.97611 9.63796 6.88858 9.37084L6.80105 9.19276C6.75728 9.10372 6.66975 8.92563 6.58222 8.70303C6.49469 8.48043 6.40715 8.30235 6.31962 8.07975C6.27585 7.9907 6.23209 7.94618 6.18832 7.90166H6.14456C6.14456 7.90166 6.10078 7.85714 6.05702 7.85714C6.01325 7.85714 5.96949 7.81262 5.92572 7.81262H4.35013C4.17507 7.81262 4.08754 7.85714 4.04377 7.90166L4 7.94618C4 7.94618 4 7.9907 4 8.03522C4 8.07974 4 8.12426 4.04377 8.2133C4.2626 8.74755 4.5252 9.2818 4.7878 9.81605C5.05039 10.3058 5.31299 10.751 5.48806 11.0626C5.70689 11.3743 5.88195 11.6859 6.10079 11.953C6.31962 12.2202 6.45091 12.3982 6.49468 12.4873C6.58221 12.5763 6.62598 12.6208 6.66974 12.6654L6.80105 12.7989C6.88858 12.888 7.01988 13.0215 7.19495 13.1551C7.37001 13.2887 7.58884 13.4222 7.80767 13.5558C8.0265 13.6893 8.28911 13.7784 8.5517 13.8674C8.85807 13.9565 9.12066 14.001 9.38326 13.9565H10.0398C10.1711 13.9565 10.2586 13.9119 10.3461 13.8229L10.3899 13.7784C10.3899 13.7339 10.4337 13.7339 10.4337 13.6893C10.4337 13.6448 10.4337 13.6003 10.4337 13.5113C10.4337 13.3332 10.4337 13.1996 10.4774 13.066C10.5212 12.9325 10.5212 12.8434 10.565 12.7544C10.6087 12.6654 10.6525 12.6208 10.6963 12.5763C10.74 12.5318 10.7838 12.4873 10.7838 12.4873H10.8275C10.9151 12.4428 11.0464 12.4873 11.1339 12.5763C11.2652 12.6654 11.3965 12.7989 11.484 12.9325C11.5716 13.066 11.7029 13.1996 11.878 13.3777C12.053 13.5558 12.1843 13.6893 12.2718 13.7339L12.4031 13.8229C12.4907 13.8674 12.5782 13.9119 12.7095 13.9565C12.8408 14.001 12.9283 14.001 13.0159 14.001L14.5039 13.9565C14.6352 13.9565 14.7665 13.9119 14.8541 13.8674C14.9416 13.8229 14.9854 13.7784 14.9854 13.6893C14.9854 13.6448 14.9854 13.5558 14.9854 13.5113C14.8978 13.4222 14.8978 13.3777 14.8978 13.3332Z" fill="white"/>
</svg>
